#!OML:ASF F:\VICON\USERDATA\INSTALL\rory3\rory3.ASF
:FULLY-SPECIFIED
:DEGREES
1560
root 0.287418 15.9445 -0.130218 -1.27406 -1.58701 -0.81104
lowerback 16.1252 1.91344 -1.70463
upperback -2.04508 2.16035 -0.443935
thorax -11.3849 1.1104 -0.0739827
lowerneck -13.3459 -12.0813 -15.1314
upperneck 16.2192 -17.4769 18.5719
head 10.4931 -7.51006 6.40854
rclavicle -1.49089e-016 5.96354e-015
rhumerus 43.063 43.6499 -43.6184
rradius 58.2433
rwrist 23.8425
rhand -12.437 9.09928
rfingers 7.12502
rthumb 13.6359 -20.4341
lclavicle -1.49089e-016 5.96354e-015
lhumerus -38.6586 -21.6557 97.1831
lradius 25.189
lwrist 3.92754
lhand -7.77543 16.353
lfingers 7.12502
lthumb 18.1249 45.5286
rfemur -4.72488 11.8335 18.016
rtibia 24.5493
rfoot -13.9553 -12.003
rtoes -10.1403
lfemur -2.15855 -10.8338 -17.0971
ltibia 20.4895
lfoot -13.1587 9.25813
ltoes -12.3892
1561
root 0.288021 15.9464 -0.135807 -1.19291 -1.48839 -0.924812
lowerback 16.1908 1.84246 -1.56714
upperback -2.1164 2.09717 -0.393531
thorax -11.4991 1.0739 -0.084112
lowerneck -13.4228 -12.0433 -15.0245
upperneck 16.3667 -17.4164 18.3917
head 10.5164 -7.48234 6.33725
rclavicle -9.74045e-015 -2.38542e-015
rhumerus 41.8796 42.1923 -45.4202
rradius 58.4838
rwrist 22.832
rhand -12.4663 8.5808
rfingers 7.12502
rthumb 13.6076 -20.9545
lclavicle -9.74045e-015 -2.38542e-015
lhumerus -38.7183 -21.3744 97.0154
lradius 25.0933
lwrist 3.68575
lhand -7.65541 16.3182
lfingers 7.12502
lthumb 18.2404 45.4829
rfemur -4.78323 11.9169 18.1485
rtibia 24.5016
rfoot -13.8764 -12.2221
rtoes -10.176
lfemur -2.32466 -10.762 -16.9193
ltibia 20.5096
lfoot -13.0648 9.06602
ltoes -11.9274
1562
root 0.291908 15.9485 -0.134515 -1.14106 -1.39379 -0.88233
lowerback 16.163 1.77643 -1.51017
upperback -2.14587 2.02161 -0.388386
thorax -11.5128 1.03501 -0.0909083
lowerneck -13.4324 -12.0029 -15.0073
upperneck 16.4222 -17.3367 18.2604
head 10.5053 -7.45406 6.30287
rclavicle 7.57867e-015 -1.98785e-015
rhumerus 40.803 40.5777 -47.2233
rradius 58.597
rwrist 21.8025
rhand -12.4832 8.37006
rfingers 7.12502
rthumb 13.5913 -21.1663
lclavicle 7.57867e-015 -1.98785e-015
lhumerus -38.7981 -21.1671 96.946
lradius 25.0285
lwrist 3.8116
lhand -7.4872 16.2987
lfingers 7.12502
lthumb 18.4022 45.4483
rfemur -4.78313 11.9162 18.0852
rtibia 24.4473
rfoot -13.8198 -12.3409
rtoes -10.6297
lfemur -2.39142 -10.7895 -16.9691
ltibia 20.5039
lfoot -12.9894 9.00522
ltoes -11.7293
1563
root 0.295739 15.951 -0.133591 -1.06703 -1.29375 -0.804765
lowerback 16.1162 1.73835 -1.4839
upperback -2.19422 1.9744 -0.409782
thorax -11.5375 1.01047 -0.116646
lowerneck -13.3984 -11.9815 -15.0034
upperneck 16.496 -17.2945 18.1454
head 10.5029 -7.44441 6.27151
rclavicle 8.79001e-015 -2.78299e-015
rhumerus 39.695 38.788 -49.0435
rradius 58.6894
rwrist 20.6688
rhand -12.6117 8.64306
rfingers 7.12502
rthumb 13.4675 -20.9015
lclavicle 8.79001e-015 -2.78299e-015
lhumerus -38.9937 -21.0842 96.9639
lradius 25.0817
lwrist 4.15389
lhand -7.39523 16.4089
lfingers 7.12502
lthumb 18.4907 45.5501
rfemur -4.80891 11.8908 17.9767
rtibia 24.3875
rfoot -13.7913 -12.4291
rtoes -10.8635
lfemur -2.45464 -10.8589 -17.0559
ltibia 20.4429
lfoot -12.9546 8.9791
ltoes -11.6773
1564
root 0.299282 15.9533 -0.13313 -1.01693 -1.22847 -0.803736
lowerback 16.0795 1.70998 -1.41744
upperback -2.22836 1.95132 -0.40276
thorax -11.5521 0.995742 -0.140235
lowerneck -13.3439 -11.9469 -14.9485
upperneck 16.5517 -17.2401 18.0159
head 10.4813 -7.42901 6.22959
rclavicle -8.29926e-015 -4.77083e-015
rhumerus 38.6972 36.9101 -50.8034
rradius 58.804
rwrist 19.2262
rhand -12.8282 8.85505
rfingers 7.12502
rthumb 13.2588 -20.7032
lclavicle -8.29926e-015 -4.77083e-015
lhumerus -39.1825 -21.1582 97.0597
lradius 25.1291
lwrist 4.54008
lhand -7.43528 16.5274
lfingers 7.12502
lthumb 18.4521 45.6722
rfemur -4.82116 11.8989 17.9675
rtibia 24.3514
rfoot -13.8084 -12.5284
rtoes -10.7851
lfemur -2.46409 -10.8239 -17.0527
ltibia 20.3376
lfoot -12.8927 8.92442
ltoes -12.0905
1565
root 0.301221 15.9564 -0.13209 -0.998325 -1.20661 -0.765369
lowerback 16.0778 1.69241 -1.41861
upperback -2.25369 1.9271 -0.406558
thorax -11.5792 0.984334 -0.137991
lowerneck -13.3702 -11.9167 -14.8687
upperneck 16.6739 -17.1936 17.8644
head 10.4955 -7.41098 6.172
rclavicle -1.80149e-015 -5.1684e-015
rhumerus 37.8354 34.9857 -52.4493
rradius 58.9358
rwrist 17.8114
rhand -13.1447 8.71026
rfingers 7.12502
rthumb 12.9537 -20.8676
lclavicle -1.80149e-015 -5.1684e-015
lhumerus -39.2855 -21.1294 97.0424
lradius 25.0853
lwrist 4.63606
lhand -7.54577 16.6964
lfingers 7.12502
lthumb 18.3459 45.8513
rfemur -4.82498 11.9994 17.93
rtibia 24.3213
rfoot -13.7726 -12.6605
rtoes -11.1104
lfemur -2.44765 -10.7839 -17.0897
ltibia 20.2459
lfoot -12.825 8.86706
ltoes -12.2976
1566
root 0.302766 15.9584 -0.130459 -0.938821 -1.18338 -0.761293
lowerback 16.0056 1.64485 -1.3903
upperback -2.27017 1.87369 -0.379751
thorax -11.5548 0.958664 -0.109053
lowerneck -13.5083 -11.884 -14.8821
upperneck 16.8883 -17.1326 17.7436
head 10.574 -7.38049 6.14087
rclavicle 5.93248e-015 4.77083e-015
rhumerus 37.0846 33.0844 -54.0164
rradius 59.1159
rwrist 16.5301
rhand -13.4844 8.28355
rfingers 7.12502
rthumb 12.6262 -21.3148
lclavicle 5.93248e-015 4.77083e-015
lhumerus -39.3127 -20.8569 96.9098
lradius 25.0458
lwrist 4.52872
lhand -7.57308 16.9262
lfingers 7.12502
lthumb 18.3196 46.0836
rfemur -4.86362 12.0711 17.9194
rtibia 24.2822
rfoot -13.7408 -12.7708
rtoes -11.0684
lfemur -2.47254 -10.7416 -17.0797
ltibia 20.1552
lfoot -12.7337 8.76344
ltoes -11.6677
1567
root 0.30584 15.9596 -0.129115 -0.897419 -1.12562 -0.758349
lowerback 15.9508 1.57895 -1.30695
upperback -2.28114 1.80359 -0.378348
thorax -11.5312 0.920404 -0.135291
lowerneck -13.6524 -11.845 -14.8256
upperneck 17.1119 -17.0652 17.5713
head 10.6434 -7.34692 6.08071
rclavicle 1.55301e-014 0
rhumerus 36.3566 31.1505 -55.7172
rradius 59.1877
rwrist 15.2659
rhand -13.7647 8.14769
rfingers 7.12502
rthumb 12.356 -21.4672
lclavicle 1.55301e-014 0
lhumerus -39.2992 -20.6101 96.7429
lradius 24.9629
lwrist 4.47917
lhand -7.4277 17.0364
lfingers 7.12502
lthumb 18.4594 46.1806
rfemur -4.86388 12.0137 17.8957
rtibia 24.2284
rfoot -13.7114 -12.7847
rtoes -11.05
lfemur -2.48183 -10.7491 -17.0826
ltibia 20.0718
lfoot -12.681 8.67636
ltoes -11.466
1568
root 0.309344 15.9614 -0.126809 -0.869649 -1.12019 -0.718684
lowerback 15.8931 1.54065 -1.27727
upperback -2.28242 1.75876 -0.384311
thorax -11.4971 0.897246 -0.145527
lowerneck -13.7459 -11.7925 -14.6713
upperneck 17.2549 -16.9701 17.3131
head 10.6502 -7.30745 5.97872
rclavicle -2.71155e-014 3.97569e-015
rhumerus 35.7241 29.1315 -57.3372
rradius 59.2275
rwrist 13.7451
rhand -13.9249 8.2999
rfingers 7.12502
rthumb 12.2016 -21.3242
lclavicle -2.71155e-014 3.97569e-015
lhumerus -39.2505 -20.4427 96.6339
lradius 24.829
lwrist 4.40273
lhand -7.33057 16.9097
lfingers 7.12502
lthumb 18.5529 46.0449
rfemur -4.86971 12.0045 17.8246
rtibia 24.1876
rfoot -13.7786 -12.7353
rtoes -10.7317
lfemur -2.46025 -10.7406 -17.1378
ltibia 19.972
lfoot -12.6496 8.68251
ltoes -11.8745
1569
root 0.312675 15.9626 -0.124359 -0.836079 -1.12785 -0.716726
lowerback 15.8145 1.51348 -1.22668
upperback -2.28415 1.73608 -0.365391
thorax -11.4516 0.884224 -0.145524
lowerneck -13.7701 -11.7587 -14.6355
upperneck 17.3448 -16.9026 17.1633
head 10.654 -7.28409 5.93205
rclavicle 7.88305e-015 5.96354e-015
rhumerus 35.3076 27.0736 -58.7007
rradius 59.211
rwrist 12.0547
rhand -14.1875 8.12311
rfingers 7.12502
rthumb 11.9483 -21.5159
lclavicle 7.88305e-015 5.96354e-015
lhumerus -39.2107 -20.3128 96.5841
lradius 24.7578
lwrist 4.23232
lhand -7.18226 16.8207
lfingers 7.12502
lthumb 18.6955 45.9423
rfemur -4.87659 12.0087 17.8021
rtibia 24.1456
rfoot -13.8362 -12.7264
rtoes -10.4697
lfemur -2.4335 -10.7471 -17.1475
ltibia 19.8625
lfoot -12.6408 8.66724
ltoes -11.949
1570
root 0.315362 15.9649 -0.122188 -0.847152 -1.14256 -0.641895
lowerback 15.8104 1.506 -1.25525
upperback -2.30109 1.71882 -0.379404
thorax -11.4686 0.877432 -0.140529
lowerneck -13.7545 -11.7208 -14.5906
upperneck 17.4562 -16.848 17.0443
head 10.6631 -7.26506 5.89511
rclavicle -2.4786e-015 2.38542e-015
rhumerus 34.9055 24.9951 -60.0634
rradius 59.2796
rwrist 10.2175
rhand -14.4701 7.75448
rfingers 7.12502
rthumb 11.6757 -21.9002
lclavicle -2.4786e-015 2.38542e-015
lhumerus -39.2097 -20.2305 96.5509
lradius 24.6794
lwrist 4.06905
lhand -7.06314 16.5661
lfingers 7.12502
lthumb 18.8101 45.6766
rfemur -4.83343 12.0233 17.7154
rtibia 24.0995
rfoot -13.8502 -12.7081
rtoes -10.1971
lfemur -2.35307 -10.7679 -17.244
ltibia 19.7512
lfoot -12.6179 8.69805
ltoes -11.9077
1571
root 0.317464 15.9668 -0.121415 -0.850791 -1.13019 -0.605356
lowerback 15.8008 1.47154 -1.24195
upperback -2.3198 1.67499 -0.384275
thorax -11.483 0.855763 -0.142325
lowerneck -13.8001 -11.6754 -14.5517
upperneck 17.6629 -16.7853 16.9075
head 10.7155 -7.23847 5.85377
rclavicle 1.92573e-014 1.39149e-015
rhumerus 34.5352 22.9946 -61.3377
rradius 59.4702
rwrist 8.14362
rhand -14.6956 7.48607
rfingers 7.12502
rthumb 11.4583 -22.1808
lclavicle 1.92573e-014 1.39149e-015
lhumerus -39.2431 -20.1924 96.559
lradius 24.6306
lwrist 4.11818
lhand -7.08213 16.4143
lfingers 7.12502
lthumb 18.7918 45.5266
rfemur -4.80923 12.013 17.672
rtibia 24.0645
rfoot -13.8418 -12.7081
rtoes -10.1123
lfemur -2.28769 -10.8149 -17.2918
ltibia 19.6409
lfoot -12.5593 8.7251
ltoes -11.7061
